<svg width="31" height="31" viewBox="0 0 31 31" fill="none" xmlns="http://www.w3.org/2000/svg">
<path fill-rule="evenodd" clip-rule="evenodd" d="M8.96488 3.1182C9.05196 3.03089 9.15542 2.96163 9.26932 2.91436C9.38321 2.8671 9.50532 2.84277 9.62863 2.84277C9.75194 2.84277 9.87404 2.8671 9.98794 2.91436C10.1018 2.96163 10.2053 3.03089 10.2924 3.1182L21.5424 14.3682C21.6297 14.4553 21.699 14.5587 21.7462 14.6726C21.7935 14.7865 21.8178 14.9086 21.8178 15.0319C21.8178 15.1553 21.7935 15.2774 21.7462 15.3913C21.699 15.5052 21.6297 15.6086 21.5424 15.6957L10.2924 26.9457C10.1163 27.1217 9.87758 27.2206 9.62863 27.2206C9.37967 27.2206 9.14092 27.1217 8.96488 26.9457C8.78884 26.7697 8.68994 26.5309 8.68994 26.2819C8.68994 26.033 8.78884 25.7942 8.96488 25.6182L19.553 15.0319L8.96488 4.4457C8.87757 4.35861 8.8083 4.25516 8.76104 4.14126C8.71378 4.02737 8.68945 3.90526 8.68945 3.78195C8.68945 3.65864 8.71378 3.53653 8.76104 3.42264C8.8083 3.30874 8.87757 3.20529 8.96488 3.1182Z" fill="#28221E"/>
</svg>
