<svg width="31" height="31" viewBox="0 0 31 31" fill="none" xmlns="http://www.w3.org/2000/svg">
<path fill-rule="evenodd" clip-rule="evenodd" d="M22.0346 3.1182C22.1219 3.20529 22.1911 3.30874 22.2384 3.42264C22.2857 3.53653 22.31 3.65864 22.31 3.78195C22.31 3.90526 22.2857 4.02737 22.2384 4.14126C22.1911 4.25516 22.1219 4.35861 22.0346 4.4457L11.4464 15.0319L22.0346 25.6182C22.2106 25.7942 22.3095 26.033 22.3095 26.2819C22.3095 26.5309 22.2106 26.7697 22.0346 26.9457C21.8585 27.1217 21.6198 27.2206 21.3708 27.2206C21.1219 27.2206 20.8831 27.1217 20.7071 26.9457L9.45707 15.6957C9.36976 15.6086 9.30049 15.5052 9.25323 15.3913C9.20597 15.2774 9.18164 15.1553 9.18164 15.0319C9.18164 14.9086 9.20597 14.7865 9.25323 14.6726C9.30049 14.5587 9.36976 14.4553 9.45707 14.3682L20.7071 3.1182C20.7942 3.03089 20.8976 2.96163 21.0115 2.91436C21.1254 2.8671 21.2475 2.84277 21.3708 2.84277C21.4941 2.84277 21.6162 2.8671 21.7301 2.91436C21.844 2.96163 21.9475 3.03089 22.0346 3.1182Z" fill="#28221E"/>
</svg>
