<svg width="27" height="27" viewBox="0 0 27 27" fill="none" xmlns="http://www.w3.org/2000/svg">
<path fill-rule="evenodd" clip-rule="evenodd" d="M19.1594 2.77816C19.238 2.85653 19.3003 2.94964 19.3429 3.05215C19.3854 3.15466 19.4073 3.26455 19.4073 3.37553C19.4073 3.48651 19.3854 3.59641 19.3429 3.69891C19.3003 3.80142 19.238 3.89453 19.1594 3.97291L9.63012 13.5005L19.1594 23.0282C19.3179 23.1866 19.4069 23.4015 19.4069 23.6255C19.4069 23.8496 19.3179 24.0645 19.1594 24.2229C19.001 24.3813 18.7861 24.4703 18.5621 24.4703C18.338 24.4703 18.1231 24.3813 17.9647 24.2229L7.83968 14.0979C7.7611 14.0195 7.69876 13.9264 7.65623 13.8239C7.61369 13.7214 7.5918 13.6115 7.5918 13.5005C7.5918 13.3896 7.61369 13.2797 7.65623 13.1772C7.69876 13.0746 7.7611 12.9815 7.83968 12.9032L17.9647 2.77816C18.0431 2.69958 18.1362 2.63724 18.2387 2.5947C18.3412 2.55217 18.4511 2.53027 18.5621 2.53027C18.673 2.53027 18.7829 2.55217 18.8854 2.5947C18.9879 2.63724 19.0811 2.69958 19.1594 2.77816Z" fill="#614E42"/>
</svg>
