<svg width="24" height="25" viewBox="0 0 24 25" fill="none" xmlns="http://www.w3.org/2000/svg">
<path d="M22.4591 6.03125C21.6891 6.38125 20.8591 6.61125 19.9991 6.72125C20.8791 6.19125 21.5591 5.35125 21.8791 4.34125C21.0491 4.84125 20.1291 5.19125 19.1591 5.39125C18.3691 4.53125 17.2591 4.03125 15.9991 4.03125C13.6491 4.03125 11.7291 5.95125 11.7291 8.32125C11.7291 8.66125 11.7691 8.99125 11.8391 9.30125C8.27906 9.12125 5.10906 7.41125 2.99906 4.82125C2.62906 5.45125 2.41906 6.19125 2.41906 6.97125C2.41906 8.46125 3.16906 9.78125 4.32906 10.5312C3.61906 10.5312 2.95906 10.3313 2.37906 10.0312V10.0612C2.37906 12.1412 3.85906 13.8812 5.81906 14.2712C5.18979 14.4435 4.52916 14.4674 3.88906 14.3413C4.16067 15.1937 4.6926 15.9397 5.41008 16.4742C6.12756 17.0087 6.99451 17.3049 7.88906 17.3213C6.37269 18.5217 4.49306 19.1706 2.55906 19.1612C2.21906 19.1612 1.87906 19.1412 1.53906 19.1012C3.43906 20.3212 5.69906 21.0312 8.11906 21.0312C15.9991 21.0312 20.3291 14.4913 20.3291 8.82125C20.3291 8.63125 20.3291 8.45125 20.3191 8.26125C21.1591 7.66125 21.8791 6.90125 22.4591 6.03125Z" fill="white"/>
</svg>
