<svg width="126" height="127" viewBox="0 0 126 127" fill="none" xmlns="http://www.w3.org/2000/svg">
<circle cx="63" cy="63" r="63" transform="matrix(-1 0 0 1 126 0.0317383)" fill="#614E42"/>
<path d="M47.8606 97.2181L47.8606 97.2181C48.123 97.466 48.4348 97.6628 48.7781 97.7971C49.1215 97.9313 49.4897 98.0005 49.8615 98.0005C50.2334 98.0005 50.6015 97.9313 50.9449 97.7971C51.2883 97.6628 51.6 97.466 51.8624 97.2181L51.8624 97.2181L86.1394 64.9142L86.1394 64.9142C86.4024 64.6669 86.611 64.3733 86.7533 64.0502C86.8955 63.7271 86.9688 63.3807 86.9688 63.031C86.9688 62.6813 86.8955 62.335 86.7533 62.0119C86.611 61.6888 86.4024 61.3951 86.1394 61.1479L86.1394 61.1478L51.8624 28.8439C51.3321 28.3441 50.6123 28.063 49.8615 28.063C49.1107 28.063 48.391 28.3441 47.8606 28.8439C47.3303 29.3437 47.0327 30.0212 47.0327 30.7271C47.0327 31.4331 47.3303 32.1105 47.8606 32.6103L80.1209 63.0083L80.1451 63.031L80.1209 63.0538L47.8606 93.4517L47.8606 93.4518C47.5976 93.699 47.389 93.9926 47.2467 94.3158C47.1045 94.6389 47.0312 94.9852 47.0312 95.3349C47.0312 95.6846 47.1045 96.031 47.2467 96.3541C47.389 96.6772 47.5976 96.9708 47.8606 97.2181Z" fill="#F2EBE3" stroke="#28221E" stroke-width="0.0625"/>
</svg>
