<svg width="126" height="127" viewBox="0 0 126 127" fill="none" xmlns="http://www.w3.org/2000/svg">
<circle cx="63" cy="63.0317" r="63" fill="#614E42"/>
<path d="M78.1394 97.2181L78.1394 97.2181C77.877 97.466 77.5652 97.6628 77.2219 97.7971C76.8785 97.9313 76.5103 98.0005 76.1385 98.0005C75.7666 98.0005 75.3985 97.9313 75.0551 97.7971C74.7117 97.6628 74.4 97.466 74.1376 97.2181L74.1376 97.2181L39.8606 64.9142L39.8606 64.9142C39.5976 64.6669 39.389 64.3733 39.2467 64.0502C39.1045 63.7271 39.0312 63.3807 39.0312 63.031C39.0312 62.6813 39.1045 62.335 39.2467 62.0119C39.389 61.6888 39.5976 61.3951 39.8606 61.1479L39.8606 61.1478L74.1376 28.8439C74.6679 28.3441 75.3877 28.063 76.1385 28.063C76.8893 28.063 77.609 28.3441 78.1394 28.8439C78.6697 29.3437 78.9673 30.0212 78.9673 30.7271C78.9673 31.4331 78.6697 32.1105 78.1394 32.6103L45.8791 63.0083L45.8549 63.031L45.8791 63.0538L78.1394 93.4517L78.1394 93.4518C78.4024 93.699 78.611 93.9926 78.7533 94.3158C78.8955 94.6389 78.9688 94.9852 78.9688 95.3349C78.9688 95.6846 78.8955 96.031 78.7533 96.3541C78.611 96.6772 78.4024 96.9708 78.1394 97.2181Z" fill="#F2EBE3" stroke="#28221E" stroke-width="0.0625"/>
</svg>
