<svg width="25" height="25" viewBox="0 0 25 25" fill="none" xmlns="http://www.w3.org/2000/svg">
<path fill-rule="evenodd" clip-rule="evenodd" d="M21.28 5.50061C21.3498 5.57028 21.4053 5.65305 21.4431 5.74416C21.4809 5.83528 21.5003 5.93296 21.5003 6.03161C21.5003 6.13027 21.4809 6.22795 21.4431 6.31906C21.4053 6.41018 21.3498 6.49295 21.28 6.56261L10.78 17.0626C10.7103 17.1325 10.6276 17.1879 10.5364 17.2257C10.4453 17.2635 10.3476 17.283 10.249 17.283C10.1503 17.283 10.0527 17.2635 9.96154 17.2257C9.87043 17.1879 9.78766 17.1325 9.71799 17.0626L4.46799 11.8126C4.32716 11.6718 4.24805 11.4808 4.24805 11.2816C4.24805 11.0825 4.32716 10.8914 4.46799 10.7506C4.60882 10.6098 4.79983 10.5307 4.99899 10.5307C5.19816 10.5307 5.38916 10.6098 5.52999 10.7506L10.249 15.4711L20.218 5.50061C20.2877 5.43077 20.3704 5.37536 20.4615 5.33755C20.5527 5.29974 20.6503 5.28027 20.749 5.28027C20.8476 5.28027 20.9453 5.29974 21.0364 5.33755C21.1276 5.37536 21.2103 5.43077 21.28 5.50061Z" fill="black"/>
</svg>
