<svg width="24" height="25" viewBox="0 0 24 25" fill="none" xmlns="http://www.w3.org/2000/svg">
<path fill-rule="evenodd" clip-rule="evenodd" d="M20.78 5.50061C20.8498 5.57028 20.9053 5.65305 20.9431 5.74416C20.9809 5.83528 21.0003 5.93296 21.0003 6.03161C21.0003 6.13027 20.9809 6.22795 20.9431 6.31906C20.9053 6.41018 20.8498 6.49295 20.78 6.56261L10.28 17.0626C10.2103 17.1325 10.1276 17.1879 10.0364 17.2257C9.94533 17.2635 9.84764 17.283 9.74899 17.283C9.65034 17.283 9.55266 17.2635 9.46154 17.2257C9.37043 17.1879 9.28766 17.1325 9.21799 17.0626L3.96799 11.8126C3.82716 11.6718 3.74805 11.4808 3.74805 11.2816C3.74805 11.0825 3.82716 10.8914 3.96799 10.7506C4.10882 10.6098 4.29983 10.5307 4.49899 10.5307C4.69816 10.5307 4.88916 10.6098 5.02999 10.7506L9.74899 15.4711L19.718 5.50061C19.7877 5.43077 19.8704 5.37536 19.9615 5.33755C20.0527 5.29974 20.1503 5.28027 20.249 5.28027C20.3476 5.28027 20.4453 5.29974 20.5364 5.33755C20.6276 5.37536 20.7103 5.43077 20.78 5.50061Z" fill="black"/>
</svg>
