<svg width="165" height="89" viewBox="0 0 165 89" fill="none" xmlns="http://www.w3.org/2000/svg">
<path d="M36.8976 56.722C34.9492 54.4967 32.358 52.8898 29.4588 52.1088C26.5596 51.3279 23.4857 51.4088 20.6344 52.3413C17.7831 53.2737 15.2855 55.0148 13.4644 57.3394C11.6432 59.664 10.5823 62.4653 10.4187 65.3813C10.2551 68.2973 10.9964 71.1938 12.5467 73.6966C14.097 76.1994 16.3851 78.1934 19.1152 79.4208C21.8453 80.6482 24.8919 81.0527 27.8614 80.5819C30.8308 80.1111 33.5865 78.7867 35.7723 76.7799" stroke="#F2EBE3" stroke-width="3.09651"/>
<line x1="15.4873" y1="76.1454" x2="36.2782" y2="55.1333" stroke="#F2EBE3" stroke-width="3.09651"/>
<path d="M89.9796 56.722C88.0312 54.4967 85.44 52.8898 82.5408 52.1088C79.6416 51.3279 76.5677 51.4088 73.7164 52.3413C70.8651 53.2737 68.3675 55.0148 66.5464 57.3394C64.7253 59.664 63.6644 62.4653 63.5008 65.3813C63.3372 68.2973 64.0784 71.1938 65.6287 73.6966C67.179 76.1994 69.4671 78.1934 72.1972 79.4208C74.9273 80.6482 77.974 81.0527 80.9434 80.5819C83.9128 80.1111 86.6685 78.7867 88.8543 76.7799" stroke="#F2EBE3" stroke-width="3.09651"/>
<line x1="68.5713" y1="76.1454" x2="89.3622" y2="55.1333" stroke="#F2EBE3" stroke-width="3.09651"/>
<path d="M124.082 65.2903C124.082 61.6533 122.556 58.1653 119.839 55.5936C117.122 53.0219 113.437 51.5771 109.595 51.5771C105.752 51.5771 102.068 53.0219 99.3506 55.5936C96.6338 58.1653 95.1074 61.6533 95.1074 65.2903" stroke="#F2EBE3" stroke-width="3.09651"/>
<line x1="94.9967" y1="49.8076" x2="94.9967" y2="82.321" stroke="#F2EBE3" stroke-width="3.31769"/>
<line x1="124.081" y1="65.29" x2="124.081" y2="82.3209" stroke="#F2EBE3" stroke-width="3.09651"/>
<line x1="159.029" y1="0.263672" x2="159.029" y2="82.3213" stroke="#F2EBE3" stroke-width="3.09651"/>
<path d="M159.028 66.0643C159.028 74.1777 152.403 80.7728 144.209 80.7728C136.015 80.7728 129.39 74.1777 129.39 66.0643C129.39 57.9509 136.015 51.3559 144.209 51.3559C152.403 51.3559 159.028 57.9509 159.028 66.0643Z" stroke="#F2EBE3" stroke-width="3.09651"/>
<line y1="-1.54826" x2="38.0014" y2="-1.54826" transform="matrix(-0.443395 0.896326 0.8925 0.451048 59.7227 49.8076)" stroke="#F2EBE3" stroke-width="3.09651"/>
<line y1="-1.54826" x2="38.0014" y2="-1.54826" transform="matrix(0.443395 0.896326 -0.8925 0.451048 40.25 49.8076)" stroke="#F2EBE3" stroke-width="3.09651"/>
<line x1="43.793" y1="83.0954" x2="39.5906" y2="83.0954" stroke="#635B48" stroke-width="1.54826"/>
<line y1="-0.774129" x2="4.20241" y2="-0.774129" transform="matrix(1 0 0 -1 56.1797 82.3213)" stroke="#635B48" stroke-width="1.54826"/>
<line y1="-0.774129" x2="4.42359" y2="-0.774129" transform="matrix(-1 8.83628e-08 8.64928e-08 1 60.1602 49.8076)" stroke="#635B48" stroke-width="1.54826"/>
<line x1="39.8105" y1="49.0335" x2="44.2341" y2="49.0335" stroke="#635B48" stroke-width="1.54826"/>
<g clip-path="url(#clip0_648_659)">
<line x1="5.08732" y1="0.484375" x2="5.08732" y2="82.3235" stroke="#F2EBE3" stroke-width="3.09651"/>
</g>
<defs>
<clipPath id="clip0_648_659">
<rect width="3.09651" height="81.8364" fill="white" transform="translate(3.53906 0.484375)"/>
</clipPath>
</defs>
</svg>
