<svg width="165" height="89" viewBox="0 0 165 89" fill="none" xmlns="http://www.w3.org/2000/svg">
<path d="M36.8976 56.7533C34.9492 54.528 32.358 52.921 29.4588 52.1401C26.5596 51.3591 23.4857 51.4401 20.6344 52.3725C17.7831 53.305 15.2855 55.046 13.4644 57.3706C11.6432 59.6952 10.5823 62.4966 10.4187 65.4125C10.2551 68.3285 10.9964 71.2251 12.5467 73.7279C14.097 76.2307 16.3851 78.2246 19.1152 79.4521C21.8453 80.6795 24.8919 81.0839 27.8614 80.6132C30.8308 80.1424 33.5865 78.818 35.7723 76.8112" stroke="#F2EBE3" stroke-width="3.09651"/>
<line x1="15.4873" y1="76.1766" x2="36.2782" y2="55.1646" stroke="#F2EBE3" stroke-width="3.09651"/>
<path d="M89.9796 56.7533C88.0312 54.528 85.44 52.921 82.5408 52.1401C79.6416 51.3591 76.5677 51.4401 73.7164 52.3725C70.8651 53.305 68.3675 55.046 66.5464 57.3706C64.7253 59.6952 63.6644 62.4966 63.5008 65.4125C63.3372 68.3285 64.0784 71.2251 65.6287 73.7279C67.179 76.2307 69.4671 78.2246 72.1972 79.4521C74.9273 80.6795 77.974 81.0839 80.9434 80.6132C83.9128 80.1424 86.6685 78.818 88.8543 76.8112" stroke="#F2EBE3" stroke-width="3.09651"/>
<line x1="68.5713" y1="76.1766" x2="89.3622" y2="55.1646" stroke="#F2EBE3" stroke-width="3.09651"/>
<path d="M124.082 65.3215C124.082 61.6846 122.556 58.1966 119.839 55.6249C117.122 53.0532 113.437 51.6084 109.595 51.6084C105.752 51.6084 102.068 53.0532 99.3506 55.6249C96.6338 58.1966 95.1074 61.6846 95.1074 65.3215" stroke="#F2EBE3" stroke-width="3.09651"/>
<line x1="94.9967" y1="49.8389" x2="94.9967" y2="82.3523" stroke="#F2EBE3" stroke-width="3.31769"/>
<line x1="124.081" y1="65.3213" x2="124.081" y2="82.3521" stroke="#F2EBE3" stroke-width="3.09651"/>
<line x1="159.029" y1="0.294922" x2="159.029" y2="82.3525" stroke="#F2EBE3" stroke-width="3.09651"/>
<path d="M159.028 66.0956C159.028 74.2089 152.403 80.804 144.209 80.804C136.015 80.804 129.39 74.2089 129.39 66.0956C129.39 57.9822 136.015 51.3871 144.209 51.3871C152.403 51.3871 159.028 57.9822 159.028 66.0956Z" stroke="#F2EBE3" stroke-width="3.09651"/>
<line y1="-1.54826" x2="38.0014" y2="-1.54826" transform="matrix(-0.443395 0.896326 0.8925 0.451048 59.7227 49.8389)" stroke="#F2EBE3" stroke-width="3.09651"/>
<line y1="-1.54826" x2="38.0014" y2="-1.54826" transform="matrix(0.443395 0.896326 -0.8925 0.451048 40.25 49.8389)" stroke="#F2EBE3" stroke-width="3.09651"/>
<line x1="43.793" y1="83.1267" x2="39.5906" y2="83.1267" stroke="#635B48" stroke-width="1.54826"/>
<line y1="-0.774129" x2="4.20241" y2="-0.774129" transform="matrix(1 0 0 -1 56.1797 82.3525)" stroke="#635B48" stroke-width="1.54826"/>
<line y1="-0.774129" x2="4.42359" y2="-0.774129" transform="matrix(-1 8.83628e-08 8.64928e-08 1 60.1602 49.8389)" stroke="#635B48" stroke-width="1.54826"/>
<line x1="39.8105" y1="49.0647" x2="44.2341" y2="49.0647" stroke="#635B48" stroke-width="1.54826"/>
<g clip-path="url(#clip0_650_763)">
<line x1="5.08732" y1="0.515625" x2="5.08732" y2="82.3548" stroke="#F2EBE3" stroke-width="3.09651"/>
</g>
<defs>
<clipPath id="clip0_650_763">
<rect width="3.09651" height="81.8364" fill="white" transform="translate(3.53906 0.515625)"/>
</clipPath>
</defs>
</svg>
