<svg width="24" height="25" viewBox="0 0 24 25" fill="none" xmlns="http://www.w3.org/2000/svg">
<path d="M7.8 2.03125H16.2C19.4 2.03125 22 4.63125 22 7.83125V16.2313C22 17.7695 21.3889 19.2448 20.3012 20.3325C19.2135 21.4202 17.7383 22.0312 16.2 22.0312H7.8C4.6 22.0312 2 19.4313 2 16.2313V7.83125C2 6.29299 2.61107 4.81774 3.69878 3.73003C4.78649 2.64232 6.26174 2.03125 7.8 2.03125ZM7.6 4.03125C6.64522 4.03125 5.72955 4.41053 5.05442 5.08567C4.37928 5.7608 4 6.67647 4 7.63125V16.4312C4 18.4212 5.61 20.0312 7.6 20.0312H16.4C17.3548 20.0312 18.2705 19.652 18.9456 18.9768C19.6207 18.3017 20 17.386 20 16.4312V7.63125C20 5.64125 18.39 4.03125 16.4 4.03125H7.6ZM17.25 5.53125C17.5815 5.53125 17.8995 5.66295 18.1339 5.89737C18.3683 6.13179 18.5 6.44973 18.5 6.78125C18.5 7.11277 18.3683 7.43071 18.1339 7.66513C17.8995 7.89955 17.5815 8.03125 17.25 8.03125C16.9185 8.03125 16.6005 7.89955 16.3661 7.66513C16.1317 7.43071 16 7.11277 16 6.78125C16 6.44973 16.1317 6.13179 16.3661 5.89737C16.6005 5.66295 16.9185 5.53125 17.25 5.53125ZM12 7.03125C13.3261 7.03125 14.5979 7.55803 15.5355 8.49572C16.4732 9.4334 17 10.7052 17 12.0312C17 13.3573 16.4732 14.6291 15.5355 15.5668C14.5979 16.5045 13.3261 17.0312 12 17.0312C10.6739 17.0312 9.40215 16.5045 8.46447 15.5668C7.52678 14.6291 7 13.3573 7 12.0312C7 10.7052 7.52678 9.4334 8.46447 8.49572C9.40215 7.55803 10.6739 7.03125 12 7.03125ZM12 9.03125C11.2044 9.03125 10.4413 9.34732 9.87868 9.90993C9.31607 10.4725 9 11.2356 9 12.0312C9 12.8269 9.31607 13.59 9.87868 14.1526C10.4413 14.7152 11.2044 15.0312 12 15.0312C12.7956 15.0312 13.5587 14.7152 14.1213 14.1526C14.6839 13.59 15 12.8269 15 12.0312C15 11.2356 14.6839 10.4725 14.1213 9.90993C13.5587 9.34732 12.7956 9.03125 12 9.03125Z" fill="white"/>
</svg>
