<svg width="35" height="36" viewBox="0 0 35 36" fill="none" xmlns="http://www.w3.org/2000/svg">
<path fill-rule="evenodd" clip-rule="evenodd" d="M21.875 10.9692C21.875 12.1296 21.4141 13.2424 20.5936 14.0628C19.7731 14.8833 18.6603 15.3442 17.5 15.3442C16.3397 15.3442 15.2269 14.8833 14.4064 14.0628C13.5859 13.2424 13.125 12.1296 13.125 10.9692C13.125 9.80892 13.5859 8.69612 14.4064 7.87565C15.2269 7.05517 16.3397 6.59424 17.5 6.59424C18.6603 6.59424 19.7731 7.05517 20.5936 7.87565C21.4141 8.69612 21.875 9.80892 21.875 10.9692ZM17.5 17.5317C19.2405 17.5317 20.9097 16.8403 22.1404 15.6096C23.3711 14.3789 24.0625 12.7097 24.0625 10.9692C24.0625 9.22875 23.3711 7.55956 22.1404 6.32885C20.9097 5.09814 19.2405 4.40674 17.5 4.40674C15.7595 4.40674 14.0903 5.09814 12.8596 6.32885C11.6289 7.55956 10.9375 9.22875 10.9375 10.9692C10.9375 12.7097 11.6289 14.3789 12.8596 15.6096C14.0903 16.8403 15.7595 17.5317 17.5 17.5317ZM30.625 28.4692C30.625 30.6567 28.4375 30.6567 28.4375 30.6567H6.5625C6.5625 30.6567 4.375 30.6567 4.375 28.4692C4.375 26.2817 6.5625 19.7192 17.5 19.7192C28.4375 19.7192 30.625 26.2817 30.625 28.4692ZM28.4375 28.4605C28.4353 27.9224 28.1006 26.3036 26.6175 24.8205C25.1912 23.3942 22.5072 21.9067 17.5 21.9067C12.4906 21.9067 9.80875 23.3942 8.3825 24.8205C6.89938 26.3036 6.56687 27.9224 6.5625 28.4605H28.4375Z" fill="#28221E"/>
</svg>
