<svg width="14" height="15" viewBox="0 0 14 15" fill="none" xmlns="http://www.w3.org/2000/svg">
<path d="M7 14.4717C6.71667 14.4717 6.479 14.3757 6.287 14.1837C6.095 13.9917 5.99934 13.7543 6 13.4717V8.47168H1C0.71667 8.47168 0.479004 8.37568 0.287004 8.18368C0.0950036 7.99168 -0.000663206 7.75435 3.4602e-06 7.47168C3.4602e-06 7.18835 0.0960036 6.95068 0.288004 6.75868C0.480004 6.56668 0.717337 6.47102 1 6.47168H6V1.47168C6 1.18835 6.096 0.950683 6.288 0.758683C6.48 0.566683 6.71734 0.471016 7 0.471683C7.28334 0.471683 7.521 0.567683 7.713 0.759683C7.905 0.951683 8.00067 1.18902 8 1.47168V6.47168H13C13.2833 6.47168 13.521 6.56768 13.713 6.75968C13.905 6.95168 14.0007 7.18902 14 7.47168C14 7.75502 13.904 7.99268 13.712 8.18468C13.52 8.37668 13.2827 8.47235 13 8.47168H8V13.4717C8 13.755 7.904 13.9927 7.712 14.1847C7.52 14.3767 7.28267 14.4724 7 14.4717Z" fill="#F2EBE3"/>
</svg>
