<svg width="30" height="31" viewBox="0 0 30 31" fill="none" xmlns="http://www.w3.org/2000/svg">
<g clip-path="url(#clip0_101_528)">
<path fill-rule="evenodd" clip-rule="evenodd" d="M15 2.375C13.7568 2.375 12.5645 2.86886 11.6854 3.74794C10.8064 4.62701 10.3125 5.8193 10.3125 7.0625V8H19.6875V7.0625C19.6875 5.8193 19.1936 4.62701 18.3146 3.74794C17.4355 2.86886 16.2432 2.375 15 2.375V2.375ZM21.5625 8V7.0625C21.5625 5.32202 20.8711 3.65282 19.6404 2.42211C18.4097 1.1914 16.7405 0.5 15 0.5C13.2595 0.5 11.5903 1.1914 10.3596 2.42211C9.1289 3.65282 8.4375 5.32202 8.4375 7.0625V8H1.875V26.75C1.875 27.7446 2.27009 28.6984 2.97335 29.4016C3.67661 30.1049 4.63044 30.5 5.625 30.5H24.375C25.3696 30.5 26.3234 30.1049 27.0266 29.4016C27.7299 28.6984 28.125 27.7446 28.125 26.75V8H21.5625ZM3.75 9.875V26.75C3.75 27.2473 3.94754 27.7242 4.29917 28.0758C4.65081 28.4275 5.12772 28.625 5.625 28.625H24.375C24.8723 28.625 25.3492 28.4275 25.7008 28.0758C26.0525 27.7242 26.25 27.2473 26.25 26.75V9.875H3.75Z" fill="#F2EBE3"/>
</g>
<defs>
<clipPath id="clip0_101_528">
<rect width="30" height="30" fill="white" transform="translate(0 0.5)"/>
</clipPath>
</defs>
</svg>
