<svg width="30" height="31" viewBox="0 0 30 31" fill="none" xmlns="http://www.w3.org/2000/svg">
<g clip-path="url(#clip0_650_1271)">
<path fill-rule="evenodd" clip-rule="evenodd" d="M15 2.40674C13.7568 2.40674 12.5645 2.9006 11.6854 3.77968C10.8064 4.65875 10.3125 5.85104 10.3125 7.09424V8.03174H19.6875V7.09424C19.6875 5.85104 19.1936 4.65875 18.3146 3.77968C17.4355 2.9006 16.2432 2.40674 15 2.40674ZM21.5625 8.03174V7.09424C21.5625 5.35375 20.8711 3.68456 19.6404 2.45385C18.4097 1.22314 16.7405 0.531738 15 0.531738C13.2595 0.531738 11.5903 1.22314 10.3596 2.45385C9.1289 3.68456 8.4375 5.35375 8.4375 7.09424V8.03174H1.875V26.7817C1.875 27.7763 2.27009 28.7301 2.97335 29.4334C3.67661 30.1367 4.63044 30.5317 5.625 30.5317H24.375C25.3696 30.5317 26.3234 30.1367 27.0266 29.4334C27.7299 28.7301 28.125 27.7763 28.125 26.7817V8.03174H21.5625ZM3.75 9.90674V26.7817C3.75 27.279 3.94754 27.7559 4.29917 28.1076C4.65081 28.4592 5.12772 28.6567 5.625 28.6567H24.375C24.8723 28.6567 25.3492 28.4592 25.7008 28.1076C26.0525 27.7559 26.25 27.279 26.25 26.7817V9.90674H3.75Z" fill="#28221E"/>
</g>
<defs>
<clipPath id="clip0_650_1271">
<rect width="30" height="30" fill="white" transform="translate(0 0.531738)"/>
</clipPath>
</defs>
</svg>
