<svg width="165" height="90" viewBox="0 0 165 90" fill="none" xmlns="http://www.w3.org/2000/svg">
<path d="M36.8976 57.0184C34.9492 54.7931 32.358 53.1861 29.4588 52.4052C26.5596 51.6242 23.4857 51.7052 20.6344 52.6377C17.7831 53.5701 15.2855 55.3112 13.4644 57.6358C11.6432 59.9604 10.5823 62.7617 10.4187 65.6777C10.2551 68.5937 10.9964 71.4902 12.5467 73.993C14.097 76.4958 16.3851 78.4898 19.1152 79.7172C21.8453 80.9446 24.8919 81.3491 27.8614 80.8783C30.8308 80.4075 33.5865 79.0831 35.7723 77.0763" stroke="#28221E" stroke-width="3.09651"/>
<line x1="15.4873" y1="76.4413" x2="36.2782" y2="55.4292" stroke="#28221E" stroke-width="3.09651"/>
<path d="M89.9796 57.0184C88.0312 54.7931 85.44 53.1861 82.5408 52.4052C79.6416 51.6242 76.5677 51.7052 73.7164 52.6377C70.8651 53.5701 68.3675 55.3112 66.5464 57.6358C64.7253 59.9604 63.6644 62.7617 63.5008 65.6777C63.3372 68.5937 64.0784 71.4902 65.6287 73.993C67.179 76.4958 69.4671 78.4898 72.1972 79.7172C74.9273 80.9446 77.974 81.3491 80.9434 80.8783C83.9128 80.4075 86.6685 79.0831 88.8543 77.0763" stroke="#28221E" stroke-width="3.09651"/>
<line x1="68.5713" y1="76.4413" x2="89.3622" y2="55.4292" stroke="#28221E" stroke-width="3.09651"/>
<path d="M124.082 65.5867C124.082 61.9497 122.556 58.4617 119.839 55.89C117.122 53.3183 113.437 51.8735 109.595 51.8735C105.752 51.8735 102.068 53.3183 99.3506 55.89C96.6338 58.4617 95.1074 61.9497 95.1074 65.5867" stroke="#28221E" stroke-width="3.09651"/>
<line x1="94.9967" y1="50.104" x2="94.9967" y2="82.6174" stroke="#28221E" stroke-width="3.31769"/>
<line x1="124.081" y1="65.5867" x2="124.081" y2="82.6175" stroke="#28221E" stroke-width="3.09651"/>
<line x1="159.029" y1="0.559815" x2="159.029" y2="82.6174" stroke="#28221E" stroke-width="3.09651"/>
<path d="M159.028 66.3607C159.028 74.4741 152.403 81.0691 144.209 81.0691C136.015 81.0691 129.39 74.4741 129.39 66.3607C129.39 58.2473 136.015 51.6523 144.209 51.6523C152.403 51.6523 159.028 58.2473 159.028 66.3607Z" stroke="#28221E" stroke-width="3.09651"/>
<line y1="-1.54826" x2="38.0014" y2="-1.54826" transform="matrix(-0.443395 0.896326 0.8925 0.451048 59.7227 50.104)" stroke="#28221E" stroke-width="3.09651"/>
<line y1="-1.54826" x2="38.0014" y2="-1.54826" transform="matrix(0.443395 0.896326 -0.8925 0.451048 40.25 50.104)" stroke="#28221E" stroke-width="3.09651"/>
<line x1="43.793" y1="83.3916" x2="39.5906" y2="83.3916" stroke="#F2EBE3" stroke-width="1.54826"/>
<line y1="-0.774129" x2="4.20241" y2="-0.774129" transform="matrix(1 0 0 -1 56.1797 82.6174)" stroke="#F2EBE3" stroke-width="1.54826"/>
<line y1="-0.774129" x2="4.42359" y2="-0.774129" transform="matrix(-1 8.83628e-08 8.64928e-08 1 60.1602 50.104)" stroke="#F2EBE3" stroke-width="1.54826"/>
<line x1="39.8105" y1="49.3299" x2="44.2341" y2="49.3299" stroke="#F2EBE3" stroke-width="1.54826"/>
<g clip-path="url(#clip0_650_1235)">
<line x1="5.08732" y1="0.781006" x2="5.08732" y2="82.6201" stroke="#28221E" stroke-width="3.09651"/>
</g>
<defs>
<clipPath id="clip0_650_1235">
<rect width="3.09651" height="81.8364" fill="white" transform="translate(3.53906 0.781006)"/>
</clipPath>
</defs>
</svg>
