<svg width="165" height="89" viewBox="0 0 165 89" fill="none" xmlns="http://www.w3.org/2000/svg">
<path d="M36.8964 56.9866C34.948 54.7613 32.3568 53.1543 29.4576 52.3734C26.5583 51.5924 23.4845 51.6734 20.6332 52.6058C17.7819 53.5383 15.2843 55.2793 13.4631 57.6039C11.642 59.9286 10.5811 62.7299 10.4175 65.6459C10.2539 68.5618 10.9952 71.4584 12.5455 73.9612C14.0958 76.464 16.3838 78.458 19.114 79.6854C21.8441 80.9128 24.8907 81.3173 27.8602 80.8465C30.8296 80.3757 33.5853 79.0513 35.7711 77.0445" stroke="#F2EBE3" stroke-width="3.09651"/>
<line x1="15.4878" y1="76.4096" x2="36.2787" y2="55.3975" stroke="#F2EBE3" stroke-width="3.09651"/>
<path d="M89.9796 56.9866C88.0312 54.7613 85.44 53.1543 82.5408 52.3734C79.6416 51.5924 76.5677 51.6734 73.7164 52.6058C70.8651 53.5383 68.3675 55.2793 66.5464 57.6039C64.7253 59.9286 63.6644 62.7299 63.5008 65.6459C63.3372 68.5618 64.0784 71.4584 65.6287 73.9612C67.179 76.464 69.4671 78.458 72.1972 79.6854C74.9273 80.9128 77.974 81.3173 80.9434 80.8465C83.9128 80.3757 86.6685 79.0513 88.8543 77.0445" stroke="#F2EBE3" stroke-width="3.09651"/>
<line x1="68.5708" y1="76.4096" x2="89.3617" y2="55.3975" stroke="#F2EBE3" stroke-width="3.09651"/>
<path d="M124.082 65.5549C124.082 61.918 122.556 58.43 119.839 55.8583C117.122 53.2865 113.437 51.8418 109.595 51.8418C105.752 51.8418 102.068 53.2865 99.3506 55.8582C96.6338 58.43 95.1074 61.9179 95.1074 65.5549" stroke="#F2EBE3" stroke-width="3.09651"/>
<line x1="94.9967" y1="50.0723" x2="94.9967" y2="82.5857" stroke="#F2EBE3" stroke-width="3.31769"/>
<line x1="124.082" y1="65.5549" x2="124.082" y2="82.5857" stroke="#F2EBE3" stroke-width="3.09651"/>
<line x1="159.028" y1="0.528046" x2="159.028" y2="82.5857" stroke="#F2EBE3" stroke-width="3.09651"/>
<path d="M159.028 66.329C159.028 74.4423 152.404 81.0374 144.209 81.0374C136.015 81.0374 129.39 74.4423 129.39 66.329C129.39 58.2156 136.015 51.6205 144.209 51.6205C152.404 51.6205 159.028 58.2156 159.028 66.329Z" stroke="#F2EBE3" stroke-width="3.09651"/>
<line y1="-1.54826" x2="38.0014" y2="-1.54826" transform="matrix(-0.443395 0.896326 0.8925 0.451048 59.7234 50.0723)" stroke="#F2EBE3" stroke-width="3.09651"/>
<line y1="-1.54826" x2="38.0014" y2="-1.54826" transform="matrix(0.443395 0.896326 -0.8925 0.451048 40.2498 50.0723)" stroke="#F2EBE3" stroke-width="3.09651"/>
<line x1="43.7937" y1="83.3599" x2="39.5913" y2="83.3599" stroke="#635B48" stroke-width="1.54826"/>
<line y1="-0.774129" x2="4.20241" y2="-0.774129" transform="matrix(1 0 0 -1 56.1794 82.5857)" stroke="#635B48" stroke-width="1.54826"/>
<line y1="-0.774129" x2="4.42359" y2="-0.774129" transform="matrix(-1 8.83628e-08 8.64928e-08 1 60.1606 50.0723)" stroke="#635B48" stroke-width="1.54826"/>
<line x1="39.8123" y1="49.2982" x2="44.2358" y2="49.2982" stroke="#635B48" stroke-width="1.54826"/>
<g clip-path="url(#clip0_101_492)">
<line x1="5.08708" y1="0.749268" x2="5.08707" y2="82.5884" stroke="#F2EBE3" stroke-width="3.09651"/>
</g>
<defs>
<clipPath id="clip0_101_492">
<rect width="3.09651" height="81.8364" fill="white" transform="translate(3.53882 0.749268)"/>
</clipPath>
</defs>
</svg>
