<svg width="165" height="89" viewBox="0 0 165 89" fill="none" xmlns="http://www.w3.org/2000/svg">
<path d="M36.8964 56.7225C34.948 54.4972 32.3568 52.8902 29.4576 52.1093C26.5583 51.3283 23.4845 51.4093 20.6332 52.3418C17.7819 53.2742 15.2843 55.0153 13.4631 57.3399C11.642 59.6645 10.5811 62.4658 10.4175 65.3818C10.2539 68.2978 10.9952 71.1943 12.5455 73.6971C14.0958 76.1999 16.3838 78.1939 19.114 79.4213C21.8441 80.6487 24.8907 81.0532 27.8602 80.5824C30.8296 80.1116 33.5853 78.7872 35.7711 76.7804" stroke="#F2EBE3" stroke-width="3.09651"/>
<line x1="15.4878" y1="76.1454" x2="36.2787" y2="55.1333" stroke="#F2EBE3" stroke-width="3.09651"/>
<path d="M89.9796 56.7225C88.0312 54.4972 85.44 52.8902 82.5408 52.1093C79.6416 51.3283 76.5677 51.4093 73.7164 52.3418C70.8651 53.2742 68.3675 55.0153 66.5464 57.3399C64.7253 59.6645 63.6644 62.4658 63.5008 65.3818C63.3372 68.2978 64.0784 71.1943 65.6287 73.6971C67.179 76.1999 69.4671 78.1939 72.1972 79.4213C74.9273 80.6487 77.974 81.0532 80.9434 80.5824C83.9128 80.1116 86.6685 78.7872 88.8543 76.7804" stroke="#F2EBE3" stroke-width="3.09651"/>
<line x1="68.5708" y1="76.1454" x2="89.3617" y2="55.1333" stroke="#F2EBE3" stroke-width="3.09651"/>
<path d="M124.082 65.2908C124.082 61.6538 122.556 58.1658 119.839 55.5941C117.122 53.0224 113.437 51.5776 109.595 51.5776C105.752 51.5776 102.068 53.0224 99.3506 55.5941C96.6338 58.1658 95.1074 61.6538 95.1074 65.2908" stroke="#F2EBE3" stroke-width="3.09651"/>
<line x1="94.9967" y1="49.8081" x2="94.9967" y2="82.3215" stroke="#F2EBE3" stroke-width="3.31769"/>
<line x1="124.082" y1="65.2905" x2="124.082" y2="82.3214" stroke="#F2EBE3" stroke-width="3.09651"/>
<line x1="159.028" y1="0.26416" x2="159.028" y2="82.3218" stroke="#F2EBE3" stroke-width="3.09651"/>
<path d="M159.028 66.0653C159.028 74.1787 152.404 80.7737 144.209 80.7737C136.015 80.7737 129.39 74.1787 129.39 66.0653C129.39 57.9519 136.015 51.3569 144.209 51.3569C152.404 51.3569 159.028 57.9519 159.028 66.0653Z" stroke="#F2EBE3" stroke-width="3.09651"/>
<line y1="-1.54826" x2="38.0014" y2="-1.54826" transform="matrix(-0.443395 0.896326 0.8925 0.451048 59.7234 49.8081)" stroke="#F2EBE3" stroke-width="3.09651"/>
<line y1="-1.54826" x2="38.0014" y2="-1.54826" transform="matrix(0.443395 0.896326 -0.8925 0.451048 40.2498 49.8081)" stroke="#F2EBE3" stroke-width="3.09651"/>
<line x1="43.7937" y1="83.0954" x2="39.5913" y2="83.0954" stroke="#635B48" stroke-width="1.54826"/>
<line y1="-0.774129" x2="4.20241" y2="-0.774129" transform="matrix(1 0 0 -1 56.1794 82.3213)" stroke="#635B48" stroke-width="1.54826"/>
<line y1="-0.774129" x2="4.42359" y2="-0.774129" transform="matrix(-1 8.83628e-08 8.64928e-08 1 60.1606 49.8081)" stroke="#635B48" stroke-width="1.54826"/>
<line x1="39.8123" y1="49.034" x2="44.2358" y2="49.034" stroke="#635B48" stroke-width="1.54826"/>
<g clip-path="url(#clip0_101_369)">
<line x1="5.08708" y1="0.485352" x2="5.08707" y2="82.3245" stroke="#F2EBE3" stroke-width="3.09651"/>
</g>
<defs>
<clipPath id="clip0_101_369">
<rect width="3.09651" height="81.8364" fill="white" transform="translate(3.53882 0.485352)"/>
</clipPath>
</defs>
</svg>
