<svg width="165" height="83" viewBox="0 0 165 83" fill="none" xmlns="http://www.w3.org/2000/svg">
<path d="M36.8965 56.4584C34.9481 54.2331 32.3569 52.6261 29.4577 51.8452C26.5585 51.0642 23.4846 51.1452 20.6333 52.0777C17.782 53.0101 15.2844 54.7512 13.4633 57.0758C11.6421 59.4004 10.5812 62.2017 10.4176 65.1177C10.254 68.0337 10.9953 70.9302 12.5456 73.433C14.0959 75.9358 16.384 77.9298 19.1141 79.1572C21.8442 80.3846 24.8908 80.7891 27.8603 80.3183C30.8297 79.8475 33.5854 78.5231 35.7712 76.5163" stroke="#F2EBE3" stroke-width="3.09651"/>
<line x1="15.4878" y1="75.8814" x2="36.2787" y2="54.8693" stroke="#F2EBE3" stroke-width="3.09651"/>
<path d="M89.9796 56.4584C88.0312 54.2331 85.44 52.6261 82.5408 51.8452C79.6416 51.0642 76.5677 51.1452 73.7164 52.0777C70.8651 53.0101 68.3675 54.7512 66.5464 57.0758C64.7253 59.4004 63.6644 62.2017 63.5008 65.1177C63.3372 68.0337 64.0784 70.9302 65.6287 73.433C67.179 75.9358 69.4671 77.9298 72.1972 79.1572C74.9273 80.3846 77.974 80.7891 80.9434 80.3183C83.9128 79.8475 86.6685 78.5231 88.8543 76.5163" stroke="#F2EBE3" stroke-width="3.09651"/>
<line x1="68.5711" y1="75.8814" x2="89.362" y2="54.8693" stroke="#F2EBE3" stroke-width="3.09651"/>
<path d="M124.082 65.0267C124.082 61.3898 122.555 57.9018 119.838 55.3301C117.122 52.7584 113.437 51.3136 109.594 51.3136C105.752 51.3136 102.067 52.7584 99.3504 55.3301C96.6335 57.9018 95.1072 61.3898 95.1072 65.0267" stroke="#F2EBE3" stroke-width="3.09651"/>
<line x1="94.9966" y1="49.5441" x2="94.9966" y2="82.0575" stroke="#F2EBE3" stroke-width="3.31769"/>
<line x1="124.082" y1="65.0267" x2="124.082" y2="82.0576" stroke="#F2EBE3" stroke-width="3.09651"/>
<line x1="159.028" y1="-0.000122003" x2="159.028" y2="82.0575" stroke="#F2EBE3" stroke-width="3.09651"/>
<path d="M159.028 65.8008C159.028 73.9142 152.403 80.5092 144.209 80.5092C136.015 80.5092 129.39 73.9142 129.39 65.8008C129.39 57.6874 136.015 51.0924 144.209 51.0924C152.403 51.0924 159.028 57.6874 159.028 65.8008Z" stroke="#F2EBE3" stroke-width="3.09651"/>
<mask id="mask0_110_1405" style="mask-type:alpha" maskUnits="userSpaceOnUse" x="40" y="49" width="20" height="34">
<rect x="40" y="49.5441" width="20" height="32.5" fill="#F2EBE3"/>
</mask>
<g mask="url(#mask0_110_1405)">
<line y1="-1.54826" x2="38.0014" y2="-1.54826" transform="matrix(0.443395 0.896326 -0.8925 0.451048 40.2499 49.5442)" stroke="#F2EBE3" stroke-width="3.09651"/>
<line y1="-1.54826" x2="38.0014" y2="-1.54826" transform="matrix(-0.443395 0.896326 0.8925 0.451048 59.7233 49.5441)" stroke="#F2EBE3" stroke-width="3.09651"/>
</g>
<g clip-path="url(#clip0_110_1405)">
<line x1="5.08708" y1="0.221085" x2="5.08707" y2="82.0602" stroke="#F2EBE3" stroke-width="3.09651"/>
</g>
<defs>
<clipPath id="clip0_110_1405">
<rect width="3.09651" height="81.8364" fill="white" transform="translate(3.53882 0.221085)"/>
</clipPath>
</defs>
</svg>
