<svg width="24" height="25" viewBox="0 0 24 25" fill="none" xmlns="http://www.w3.org/2000/svg">
<path d="M12 2.07129C6.5 2.07129 2 6.56129 2 12.0913C2 17.0913 5.66 21.2413 10.44 21.9913V14.9913H7.9V12.0913H10.44V9.88129C10.44 7.37129 11.93 5.99129 14.22 5.99129C15.31 5.99129 16.45 6.18129 16.45 6.18129V8.65129H15.19C13.95 8.65129 13.56 9.42129 13.56 10.2113V12.0913H16.34L15.89 14.9913H13.56V21.9913C15.9164 21.6191 18.0622 20.4168 19.6099 18.6013C21.1576 16.7859 22.0054 14.4769 22 12.0913C22 6.56129 17.5 2.07129 12 2.07129Z" fill="white"/>
</svg>
