<svg width="35" height="35" viewBox="0 0 35 35" fill="none" xmlns="http://www.w3.org/2000/svg">
<path fill-rule="evenodd" clip-rule="evenodd" d="M21.875 10.9375C21.875 12.0978 21.4141 13.2106 20.5936 14.0311C19.7731 14.8516 18.6603 15.3125 17.5 15.3125C16.3397 15.3125 15.2269 14.8516 14.4064 14.0311C13.5859 13.2106 13.125 12.0978 13.125 10.9375C13.125 9.77718 13.5859 8.66438 14.4064 7.84391C15.2269 7.02344 16.3397 6.5625 17.5 6.5625C18.6603 6.5625 19.7731 7.02344 20.5936 7.84391C21.4141 8.66438 21.875 9.77718 21.875 10.9375V10.9375ZM17.5 17.5C19.2405 17.5 20.9097 16.8086 22.1404 15.5779C23.3711 14.3472 24.0625 12.678 24.0625 10.9375C24.0625 9.19702 23.3711 7.52782 22.1404 6.29711C20.9097 5.0664 19.2405 4.375 17.5 4.375C15.7595 4.375 14.0903 5.0664 12.8596 6.29711C11.6289 7.52782 10.9375 9.19702 10.9375 10.9375C10.9375 12.678 11.6289 14.3472 12.8596 15.5779C14.0903 16.8086 15.7595 17.5 17.5 17.5V17.5ZM30.625 28.4375C30.625 30.625 28.4375 30.625 28.4375 30.625H6.5625C6.5625 30.625 4.375 30.625 4.375 28.4375C4.375 26.25 6.5625 19.6875 17.5 19.6875C28.4375 19.6875 30.625 26.25 30.625 28.4375ZM28.4375 28.4288C28.4353 27.8906 28.1006 26.2719 26.6175 24.7887C25.1913 23.3625 22.5072 21.875 17.5 21.875C12.4906 21.875 9.80875 23.3625 8.3825 24.7887C6.89938 26.2719 6.56688 27.8906 6.5625 28.4288H28.4375Z" fill="#F2EBE3"/>
</svg>
