<svg width="30" height="31" viewBox="0 0 30 31" fill="none" xmlns="http://www.w3.org/2000/svg">
<g clip-path="url(#clip0_101_525)">
<path fill-rule="evenodd" clip-rule="evenodd" d="M19.5764 20.0791C19.7505 19.9048 19.9573 19.7665 20.1849 19.6721C20.4125 19.5778 20.6565 19.5292 20.9029 19.5292C21.1493 19.5292 21.3933 19.5778 21.6209 19.6721C21.8486 19.7665 22.0553 19.9048 22.2295 20.0791L29.4482 27.2979C29.8001 27.6494 29.9978 28.1264 29.998 28.6238C29.9982 29.1211 29.8007 29.5982 29.4492 29.9501C29.0976 30.3019 28.6207 30.4996 28.1233 30.4998C27.6259 30.5 27.1488 30.3026 26.797 29.951L19.5782 22.7322C19.4039 22.5581 19.2656 22.3513 19.1712 22.1237C19.0769 21.8961 19.0283 21.6521 19.0283 21.4057C19.0283 21.1593 19.0769 20.9153 19.1712 20.6877C19.2656 20.46 19.4039 20.2533 19.5782 20.0791H19.5764Z" fill="#F2EBE3"/>
<path fill-rule="evenodd" clip-rule="evenodd" d="M12.1875 23C13.5418 23 14.8828 22.7333 16.1339 22.215C17.3851 21.6968 18.5219 20.9371 19.4795 19.9795C20.4371 19.0219 21.1968 17.8851 21.715 16.6339C22.2333 15.3828 22.5 14.0418 22.5 12.6875C22.5 11.3332 22.2333 9.99225 21.715 8.74108C21.1968 7.48991 20.4371 6.35307 19.4795 5.39546C18.5219 4.43786 17.3851 3.67824 16.1339 3.15999C14.8828 2.64174 13.5418 2.375 12.1875 2.375C9.45246 2.375 6.82943 3.46149 4.89546 5.39546C2.96149 7.32943 1.875 9.95246 1.875 12.6875C1.875 15.4225 2.96149 18.0456 4.89546 19.9795C6.82943 21.9135 9.45246 23 12.1875 23V23ZM24.375 12.6875C24.375 15.9198 23.091 19.0198 20.8054 21.3054C18.5198 23.591 15.4198 24.875 12.1875 24.875C8.95517 24.875 5.85524 23.591 3.56964 21.3054C1.28404 19.0198 0 15.9198 0 12.6875C0 9.45517 1.28404 6.35524 3.56964 4.06964C5.85524 1.78404 8.95517 0.5 12.1875 0.5C15.4198 0.5 18.5198 1.78404 20.8054 4.06964C23.091 6.35524 24.375 9.45517 24.375 12.6875V12.6875Z" fill="#F2EBE3"/>
</g>
<defs>
<clipPath id="clip0_101_525">
<rect width="30" height="30" fill="white" transform="translate(0 0.5)"/>
</clipPath>
</defs>
</svg>
