<svg width="30" height="31" viewBox="0 0 30 31" fill="none" xmlns="http://www.w3.org/2000/svg">
<g clip-path="url(#clip0_650_1268)">
<path fill-rule="evenodd" clip-rule="evenodd" d="M19.5773 20.1109C19.7515 19.9366 19.9583 19.7983 20.1859 19.704C20.4135 19.6096 20.6575 19.561 20.9039 19.561C21.1503 19.561 21.3943 19.6096 21.6219 19.704C21.8495 19.7983 22.0563 19.9366 22.2305 20.1109L29.4492 27.3297C29.801 27.6813 29.9988 28.1582 29.999 28.6556C29.9991 29.153 29.8017 29.6301 29.4501 29.9819C29.0986 30.3337 28.6216 30.5315 28.1242 30.5316C27.6269 30.5318 27.1498 30.3344 26.798 29.9828L19.5792 22.7641C19.4049 22.5899 19.2666 22.3831 19.1722 22.1555C19.0779 21.9279 19.0293 21.6839 19.0293 21.4375C19.0293 21.1911 19.0779 20.9471 19.1722 20.7195C19.2666 20.4919 19.4049 20.2851 19.5792 20.1109H19.5773Z" fill="#28221E"/>
<path fill-rule="evenodd" clip-rule="evenodd" d="M12.1875 23.0317C13.5418 23.0317 14.8828 22.765 16.1339 22.2467C17.3851 21.7285 18.5219 20.9689 19.4795 20.0113C20.4371 19.0537 21.1968 17.9168 21.715 16.6657C22.2333 15.4145 22.5 14.0735 22.5 12.7192C22.5 11.365 22.2333 10.024 21.715 8.77282C21.1968 7.52165 20.4371 6.3848 19.4795 5.4272C18.5219 4.4696 17.3851 3.70998 16.1339 3.19173C14.8828 2.67348 13.5418 2.40674 12.1875 2.40674C9.45246 2.40674 6.82943 3.49323 4.89546 5.4272C2.96149 7.36117 1.875 9.98419 1.875 12.7192C1.875 15.4543 2.96149 18.0773 4.89546 20.0113C6.82943 21.9452 9.45246 23.0317 12.1875 23.0317ZM24.375 12.7192C24.375 15.9516 23.091 19.0515 20.8054 21.3371C18.5198 23.6227 15.4198 24.9067 12.1875 24.9067C8.95517 24.9067 5.85524 23.6227 3.56964 21.3371C1.28404 19.0515 0 15.9516 0 12.7192C0 9.48691 1.28404 6.38697 3.56964 4.10137C5.85524 1.81577 8.95517 0.531738 12.1875 0.531738C15.4198 0.531738 18.5198 1.81577 20.8054 4.10137C23.091 6.38697 24.375 9.48691 24.375 12.7192Z" fill="#28221E"/>
</g>
<defs>
<clipPath id="clip0_650_1268">
<rect width="30" height="30" fill="white" transform="translate(0 0.531738)"/>
</clipPath>
</defs>
</svg>
